<?xml version="1.0" encoding="UTF-8" standalone="no"?>
<!-- Created with Fritzing (http://www.fritzing.org/) -->

<svg
   xmlns:dc="http://purl.org/dc/elements/1.1/"
   xmlns:cc="http://creativecommons.org/ns#"
   xmlns:rdf="http://www.w3.org/1999/02/22-rdf-syntax-ns#"
   xmlns:svg="http://www.w3.org/2000/svg"
   xmlns="http://www.w3.org/2000/svg"
   xmlns:sodipodi="http://sodipodi.sourceforge.net/DTD/sodipodi-0.dtd"
   xmlns:inkscape="http://www.inkscape.org/namespaces/inkscape"
   width="0.7in"
   x="0in"
   version="1.2"
   y="0in"
   height="0.828028in"
   viewBox="0 0 50.4 59.618"
   id="svg3485"
   inkscape:version="0.48.4 r"
   sodipodi:docname="P9813_breadboard.svg">
  <metadata
     id="metadata3945">
    <rdf:RDF>
      <cc:Work
         rdf:about="">
        <dc:format>image/svg+xml</dc:format>
        <dc:type
           rdf:resource="http://purl.org/dc/dcmitype/StillImage" />
      </cc:Work>
    </rdf:RDF>
  </metadata>
  <defs
     id="defs3943" />
  <sodipodi:namedview
     pagecolor="#ffffff"
     bordercolor="#666666"
     borderopacity="1"
     objecttolerance="10"
     gridtolerance="10"
     guidetolerance="10"
     inkscape:pageopacity="0"
     inkscape:pageshadow="2"
     inkscape:window-width="2048"
     inkscape:window-height="1100"
     id="namedview3941"
     showgrid="false"
     inkscape:zoom="12.345261"
     inkscape:cx="31.5"
     inkscape:cy="46.98159"
     inkscape:window-x="-8"
     inkscape:window-y="-8"
     inkscape:window-maximized="1"
     inkscape:current-layer="svg3485" />
  <path
     style="fill:#1f7a34;stroke:none"
     inkscape:connector-curvature="0"
     id="path3540"
     d="M 0.06480216,2.5645389e-8 0.06480216,19.44 a 2.16,2.16 0 0 1 0,4.32 l 0,19.44 50.39999984,0 0,-43.199999974354611 -50.39999984,0 z" />
  <g
     id="g3544"
     transform="translate(12.6173,12.1039)">
    <g
       transform="matrix(0.5,0,0,0.5,6.29135,4.74803)"
       id="g3546">
      <g
         id="g3548">
        <rect
           width="1.41733"
           x="1.0740499"
           y="15.5906"
           connectorname="1"
           height="3.4015801"
           id="rect3550"
           style="fill:#8c8c8c;stroke:none" />
        <rect
           width="1.41733"
           x="4.6740499"
           y="15.5906"
           connectorname="2"
           height="3.4015801"
           id="rect3552"
           style="fill:#8c8c8c;stroke:none" />
        <rect
           width="1.41733"
           x="4.6740499"
           y="0"
           connectorname="13"
           height="3.4015801"
           id="rect3574"
           style="fill:#8c8c8c;stroke:none" />
        <rect
           width="1.41733"
           x="1.0740499"
           y="0"
           connectorname="14"
           height="3.4015801"
           id="rect3576"
           style="fill:#8c8c8c;stroke:none" />
        <rect
           width="25.1654"
           x="0"
           y="3.6456399"
           height="11.7009"
           id="rect3578"
           style="fill:#303030;stroke:none" />
        <polygon
           points="0,3.64564 25.1654,3.64564 24.4454,4.36564 0.72,4.36564 "
           id="polygon3580"
           style="fill:#1f1f1f" />
        <polygon
           points="0,15.3465 25.1654,15.3465 24.4454,14.6265 0.72,14.6265 "
           id="polygon3582"
           style="fill:#1f1f1f" />
        <polygon
           points="0,3.64564 0,15.3465 0.72,14.6265 0.72,4.36564 "
           id="polygon3584"
           style="fill:#000000" />
        <polygon
           points="25.1654,3.64564 25.1654,15.3465 24.4454,14.6265 24.4454,4.36564 "
           id="polygon3586"
           style="fill:#3d3d3d" />
        <circle
           cx="2.1600001"
           cy="13.1865"
           r="0.72000003"
           id="circle3588"
           d="m 2.8800001,13.1865 c 0,0.397645 -0.322355,0.72 -0.72,0.72 -0.397645,0 -0.72,-0.322355 -0.72,-0.72 0,-0.397645 0.322355,-0.72 0.72,-0.72 0.397645,0 0.72,0.322355 0.72,0.72 z"
           sodipodi:cx="2.1600001"
           sodipodi:cy="13.1865"
           sodipodi:rx="0.72000003"
           sodipodi:ry="0.72000003"
           style="fill:#1f1f1f;stroke:none" />
      </g>
    </g>
  </g>
  <text
     style="font-size:4.67999983px;text-anchor:start;fill:#ffffff;stroke:none;font-family:OCRA"
     font-size="4.68"
     id="label"
     y="23.355"
     x="3.5999999">P9813</text>
  <g
     id="g3591"
     transform="translate(4.572,37.8756)">
    <g
       id="g3593">
      <g
         id="g3595"
         transform="matrix(0,-1,1,0,0,0)">
        <g
           id="g3597">
          <text
             style="font-size:3.24000001px;text-anchor:start;fill:#ffffff;stroke:none;font-family:OCRA"
             id="text3599"
             font-size="3.24"
             y="0"
             x="0">1</text>
        </g>
      </g>
    </g>
  </g>
  <g
     id="g3601"
     transform="translate(4.572,5.3244)">
    <g
       id="g3603">
      <g
         id="g3605"
         transform="matrix(0,-1,1,0,0,0)">
        <g
           id="g3607">
          <text
             style="font-size:3.24000001px;text-anchor:end;fill:#ffffff;stroke:none;font-family:OCRA"
             id="text3609"
             font-size="3.24"
             y="0"
             x="0" />
        </g>
      </g>
    </g>
  </g>
  <g
     id="g3611"
     transform="translate(11.772,37.8756)">
    <g
       id="g3613">
      <g
         id="g3615"
         transform="matrix(0,-1,1,0,0,0)">
        <g
           id="g3617">
          <text
             style="font-size:3.24000001px;text-anchor:start;fill:#ffffff;stroke:none;font-family:OCRA"
             id="text3619"
             font-size="3.24"
             y="0"
             x="0">2</text>
        </g>
      </g>
    </g>
  </g>
  <g
     id="g3621"
     transform="translate(11.772,5.3244)">
    <g
       id="g3623">
      <g
         id="g3625"
         transform="matrix(0,-1,1,0,0,0)">
        <g
           id="g3627">
          <text
             style="font-size:3.24000001px;text-anchor:end;fill:#ffffff;stroke:none;font-family:OCRA"
             id="text3629"
             font-size="3.24"
             y="0"
             x="0" />
        </g>
      </g>
    </g>
  </g>
  <g
     id="g3631"
     transform="translate(18.972,37.8756)">
    <g
       id="g3633">
      <g
         id="g3635"
         transform="matrix(0,-1,1,0,0,0)">
        <g
           id="g3637">
          <text
             style="font-size:3.24000001px;text-anchor:start;fill:#ffffff;stroke:none;font-family:OCRA"
             id="text3639"
             font-size="3.24"
             y="0"
             x="0">3</text>
        </g>
      </g>
    </g>
  </g>
  <g
     id="g3641"
     transform="translate(18.972,5.3244)">
    <g
       id="g3643">
      <g
         id="g3645"
         transform="matrix(0,-1,1,0,0,0)">
        <g
           id="g3647">
          <text
             style="font-size:3.24000001px;text-anchor:end;fill:#ffffff;stroke:none;font-family:OCRA"
             id="text3649"
             font-size="3.24"
             y="0"
             x="0" />
        </g>
      </g>
    </g>
  </g>
  <g
     id="g3651"
     transform="translate(26.172,37.8756)">
    <g
       id="g3653">
      <g
         id="g3655"
         transform="matrix(0,-1,1,0,0,0)">
        <g
           id="g3657">
          <text
             style="font-size:3.24000001px;text-anchor:start;fill:#ffffff;stroke:none;font-family:OCRA"
             id="text3659"
             font-size="3.24"
             y="0"
             x="0">4</text>
        </g>
      </g>
    </g>
  </g>
  <g
     id="g3661"
     transform="translate(26.172,5.3244)">
    <g
       id="g3663">
      <g
         id="g3665"
         transform="matrix(0,-1,1,0,0,0)">
        <g
           id="g3667">
          <text
             style="font-size:3.24000001px;text-anchor:end;fill:#ffffff;stroke:none;font-family:OCRA"
             id="text3669"
             font-size="3.24"
             y="0"
             x="0" />
        </g>
      </g>
    </g>
  </g>
  <g
     id="g3671"
     transform="translate(33.372,37.8756)">
    <g
       id="g3673">
      <g
         id="g3675"
         transform="matrix(0,-1,1,0,0,0)">
        <g
           id="g3677">
          <text
             style="font-size:3.24000001px;text-anchor:start;fill:#ffffff;stroke:none;font-family:OCRA"
             id="text3679"
             font-size="3.24"
             y="0"
             x="0" />
        </g>
      </g>
    </g>
  </g>
  <g
     id="g3681"
     transform="translate(33.372,5.3244)">
    <g
       id="g3683">
      <g
         id="g3685"
         transform="matrix(0,-1,1,0,0,0)">
        <g
           id="g3687">
          <text
             style="font-size:3.24000001px;text-anchor:end;fill:#ffffff;stroke:none;font-family:OCRA"
             id="text3689"
             font-size="3.24"
             y="0"
             x="0" />
        </g>
      </g>
    </g>
  </g>
  <g
     id="g3691"
     transform="translate(40.572,37.8756)">
    <g
       id="g3693">
      <g
         id="g3695"
         transform="matrix(0,-1,1,0,0,0)">
        <g
           id="g3697">
          <text
             style="font-size:3.24000001px;text-anchor:start;fill:#ffffff;stroke:none;font-family:OCRA"
             id="text3699"
             font-size="3.24"
             y="0"
             x="0" />
        </g>
      </g>
    </g>
  </g>
  <g
     id="g3701"
     transform="translate(40.572,5.3244)">
    <g
       id="g3703">
      <g
         id="g3705"
         transform="matrix(0,-1,1,0,0,0)">
        <g
           id="g3707">
          <text
             style="font-size:3.24000001px;text-anchor:end;fill:#ffffff;stroke:none;font-family:OCRA"
             id="text3709"
             font-size="3.24"
             y="0"
             x="0" />
        </g>
      </g>
    </g>
  </g>
  <g
     id="g3711"
     transform="translate(47.772,37.8756)">
    <g
       id="g3713">
      <g
         id="g3715"
         transform="matrix(0,-1,1,0,0,0)">
        <g
           id="g3717">
          <text
             style="font-size:3.24000001px;text-anchor:start;fill:#ffffff;stroke:none;font-family:OCRA"
             id="text3719"
             font-size="3.24"
             y="0"
             x="0" />
        </g>
      </g>
    </g>
  </g>
  <g
     id="g3721"
     transform="translate(47.772,5.3244)">
    <g
       id="g3723">
      <g
         id="g3725"
         transform="matrix(0,-1,1,0,0,0)">
        <g
           id="g3727">
          <text
             style="font-size:3.24000001px;text-anchor:end;fill:#ffffff;stroke:none;font-family:OCRA"
             id="text3729"
             font-size="3.24"
             y="0"
             x="0" />
        </g>
      </g>
    </g>
  </g>
  <g
     transform="translate(2.45052,38.4516)"
     id="g3731">
    <g
       id="g3733">
      <rect
         width="2.29896"
         x="0"
         y="0"
         height="2.2967999"
         id="connector0pin"
         style="fill:#8d8c8c" />
      <rect
         width="1.18398"
         x="0.56098998"
         y="0.556952"
         height="1.18189"
         id="rect3736"
         style="fill:#8c8663" />
      <polygon
         points="0,2.2968 0.56099,1.73785 0.56099,0.501957 0,0 "
         id="polygon3738"
         style="fill:#b8af82" />
      <polygon
         points="1.74297,0.558951 0.56899,0.558951 0,0 2.29896,0 "
         id="polygon3740"
         style="fill:#80795b" />
      <polygon
         points="1.74297,1.73785 1.74297,0.558951 2.29896,0 2.29896,2.2968 "
         id="polygon3742"
         style="fill:#5e5b43" />
      <polygon
         points="0,2.2968 0.56699,1.73785 1.74297,1.73785 2.29896,2.2968 "
         id="polygon3744"
         style="fill:#9a916c" />
    </g>
  </g>
  <g
     transform="translate(9.65052,38.4516)"
     id="g3761">
    <g
       id="g3763">
      <rect
         width="2.29896"
         x="0"
         y="0"
         height="2.2967999"
         id="connector1pin"
         style="fill:#8d8c8c" />
      <rect
         width="1.18398"
         x="0.56098998"
         y="0.556952"
         height="1.18189"
         id="rect3766"
         style="fill:#8c8663" />
      <polygon
         points="0,2.2968 0.56099,1.73785 0.56099,0.501957 0,0 "
         id="polygon3768"
         style="fill:#b8af82" />
      <polygon
         points="1.74297,0.558951 0.56899,0.558951 0,0 2.29896,0 "
         id="polygon3770"
         style="fill:#80795b" />
      <polygon
         points="1.74297,1.73785 1.74297,0.558951 2.29896,0 2.29896,2.2968 "
         id="polygon3772"
         style="fill:#5e5b43" />
      <polygon
         points="0,2.2968 0.56699,1.73785 1.74297,1.73785 2.29896,2.2968 "
         id="polygon3774"
         style="fill:#9a916c" />
    </g>
  </g>
  <g
     transform="translate(16.8505,38.4516)"
     id="g3791">
    <g
       id="g3793">
      <rect
         width="2.29896"
         x="0"
         y="0"
         height="2.2967999"
         id="connector2pin"
         style="fill:#8d8c8c" />
      <rect
         width="1.18398"
         x="0.56098998"
         y="0.556952"
         height="1.18189"
         id="rect3796"
         style="fill:#8c8663" />
      <polygon
         points="0,2.2968 0.56099,1.73785 0.56099,0.501957 0,0 "
         id="polygon3798"
         style="fill:#b8af82" />
      <polygon
         points="1.74297,0.558951 0.56899,0.558951 0,0 2.29896,0 "
         id="polygon3800"
         style="fill:#80795b" />
      <polygon
         points="1.74297,1.73785 1.74297,0.558951 2.29896,0 2.29896,2.2968 "
         id="polygon3802"
         style="fill:#5e5b43" />
      <polygon
         points="0,2.2968 0.56699,1.73785 1.74297,1.73785 2.29896,2.2968 "
         id="polygon3804"
         style="fill:#9a916c" />
    </g>
  </g>
  <g
     transform="translate(24.0505,38.4516)"
     id="g3821">
    <g
       id="g3823">
      <rect
         width="2.29896"
         x="0"
         y="0"
         height="2.2967999"
         id="connector3pin"
         style="fill:#8d8c8c" />
      <rect
         width="1.18398"
         x="0.56098998"
         y="0.556952"
         height="1.18189"
         id="rect3826"
         style="fill:#8c8663" />
      <polygon
         points="0,2.2968 0.56099,1.73785 0.56099,0.501957 0,0 "
         id="polygon3828"
         style="fill:#b8af82" />
      <polygon
         points="1.74297,0.558951 0.56899,0.558951 0,0 2.29896,0 "
         id="polygon3830"
         style="fill:#80795b" />
      <polygon
         points="1.74297,1.73785 1.74297,0.558951 2.29896,0 2.29896,2.2968 "
         id="polygon3832"
         style="fill:#5e5b43" />
      <polygon
         points="0,2.2968 0.56699,1.73785 1.74297,1.73785 2.29896,2.2968 "
         id="polygon3834"
         style="fill:#9a916c" />
    </g>
  </g>
</svg>
