<?xml version="1.0" encoding="UTF-8" standalone="no"?>
<!-- Created with Fritzing (http://www.fritzing.org/) -->

<svg
   xmlns:dc="http://purl.org/dc/elements/1.1/"
   xmlns:cc="http://creativecommons.org/ns#"
   xmlns:rdf="http://www.w3.org/1999/02/22-rdf-syntax-ns#"
   xmlns:svg="http://www.w3.org/2000/svg"
   xmlns="http://www.w3.org/2000/svg"
   xmlns:sodipodi="http://sodipodi.sourceforge.net/DTD/sodipodi-0.dtd"
   xmlns:inkscape="http://www.inkscape.org/namespaces/inkscape"
   width="36.900002"
   x="0in"
   version="1.2"
   y="0in"
   height="107.29509"
   viewBox="0 0 29.520002 85.835889"
   id="svg3152"
   inkscape:version="0.48.4 r"
   sodipodi:docname="TCA95484A_pcb.svg">
  <metadata
     id="metadata3279">
    <rdf:RDF>
      <cc:Work
         rdf:about="">
        <dc:format>image/svg+xml</dc:format>
        <dc:type
           rdf:resource="http://purl.org/dc/dcmitype/StillImage" />
      </cc:Work>
    </rdf:RDF>
  </metadata>
  <defs
     id="defs3277" />
  <sodipodi:namedview
     pagecolor="#ffffff"
     bordercolor="#666666"
     borderopacity="1"
     objecttolerance="10"
     gridtolerance="10"
     guidetolerance="10"
     inkscape:pageopacity="0"
     inkscape:pageshadow="2"
     inkscape:window-width="2048"
     inkscape:window-height="1100"
     id="namedview3275"
     showgrid="false"
     fit-margin-top="0"
     fit-margin-left="0"
     fit-margin-right="0"
     fit-margin-bottom="0"
     inkscape:zoom="6.8969425"
     inkscape:cx="-75.387235"
     inkscape:cy="46.869409"
     inkscape:window-x="-8"
     inkscape:window-y="-8"
     inkscape:window-maximized="1"
     inkscape:current-layer="svg3152" />
  <g
     partID="62320"
     id="g3203"
     transform="translate(-0.36000001,-0.36008098)">
    <g
       id="copper0">
      <rect
         width="3.96"
         x="2.3399999"
         y="2.3399999"
         height="3.96"
         id="square"
         style="fill:none;stroke:#ffbf00;stroke-width:1.44000006" />
      <circle
         cx="4.3200002"
         cy="4.3200002"
         id="connector0pin"
         r="1.98"
         sodipodi:cx="4.3200002"
         sodipodi:cy="4.3200002"
         sodipodi:rx="1.98"
         sodipodi:ry="1.98"
         style="fill:none;stroke:#ffbf00;stroke-width:1.44000006"
         d="m 6.3000002,4.3200002 c 0,1.0935238 -0.8864762,1.98 -1.98,1.98 -1.0935238,0 -1.98,-0.8864762 -1.98,-1.98 0,-1.0935238 0.8864762,-1.98 1.98,-1.98 1.0935238,0 1.98,0.8864762 1.98,1.98 z" />
      <circle
         cx="25.92"
         cy="4.3200002"
         id="connector15pin"
         r="1.98"
         sodipodi:cx="25.92"
         sodipodi:cy="4.3200002"
         sodipodi:rx="1.98"
         sodipodi:ry="1.98"
         style="fill:none;stroke:#ffbf00;stroke-width:1.44000006"
         d="m 27.9,4.3200002 c 0,1.0935238 -0.886476,1.98 -1.98,1.98 -1.093524,0 -1.98,-0.8864762 -1.98,-1.98 0,-1.0935238 0.886476,-1.98 1.98,-1.98 1.093524,0 1.98,0.8864762 1.98,1.98 z" />
      <circle
         cx="4.3200002"
         cy="11.52"
         id="connector1pin"
         r="1.98"
         sodipodi:cx="4.3200002"
         sodipodi:cy="11.52"
         sodipodi:rx="1.98"
         sodipodi:ry="1.98"
         style="fill:none;stroke:#ffbf00;stroke-width:1.44000006"
         d="m 6.3000002,11.52 c 0,1.093524 -0.8864762,1.98 -1.98,1.98 -1.0935238,0 -1.98,-0.886476 -1.98,-1.98 0,-1.093523 0.8864762,-1.9799996 1.98,-1.9799996 1.0935238,0 1.98,0.8864766 1.98,1.9799996 z" />
      <circle
         cx="25.92"
         cy="11.52"
         id="connector14pin"
         r="1.98"
         sodipodi:cx="25.92"
         sodipodi:cy="11.52"
         sodipodi:rx="1.98"
         sodipodi:ry="1.98"
         style="fill:none;stroke:#ffbf00;stroke-width:1.44000006"
         d="m 27.9,11.52 c 0,1.093524 -0.886476,1.98 -1.98,1.98 -1.093524,0 -1.98,-0.886476 -1.98,-1.98 0,-1.093523 0.886476,-1.9799996 1.98,-1.9799996 1.093524,0 1.98,0.8864766 1.98,1.9799996 z" />
      <circle
         cx="4.3200002"
         cy="18.719999"
         id="connector2pin"
         r="1.98"
         sodipodi:cx="4.3200002"
         sodipodi:cy="18.719999"
         sodipodi:rx="1.98"
         sodipodi:ry="1.98"
         style="fill:none;stroke:#ffbf00;stroke-width:1.44000006"
         d="m 6.3000002,18.719999 c 0,1.093524 -0.8864762,1.98 -1.98,1.98 -1.0935238,0 -1.98,-0.886476 -1.98,-1.98 0,-1.093524 0.8864762,-1.98 1.98,-1.98 1.0935238,0 1.98,0.886476 1.98,1.98 z" />
      <circle
         cx="25.92"
         cy="18.719999"
         id="connector13pin"
         r="1.98"
         sodipodi:cx="25.92"
         sodipodi:cy="18.719999"
         sodipodi:rx="1.98"
         sodipodi:ry="1.98"
         style="fill:none;stroke:#ffbf00;stroke-width:1.44000006"
         d="m 27.9,18.719999 c 0,1.093524 -0.886476,1.98 -1.98,1.98 -1.093524,0 -1.98,-0.886476 -1.98,-1.98 0,-1.093524 0.886476,-1.98 1.98,-1.98 1.093524,0 1.98,0.886476 1.98,1.98 z" />
      <circle
         cx="4.3200002"
         cy="25.92"
         id="connector3pin"
         r="1.98"
         sodipodi:cx="4.3200002"
         sodipodi:cy="25.92"
         sodipodi:rx="1.98"
         sodipodi:ry="1.98"
         style="fill:none;stroke:#ffbf00;stroke-width:1.44000006"
         d="m 6.3000002,25.92 c 0,1.093524 -0.8864762,1.98 -1.98,1.98 -1.0935238,0 -1.98,-0.886476 -1.98,-1.98 0,-1.093524 0.8864762,-1.98 1.98,-1.98 1.0935238,0 1.98,0.886476 1.98,1.98 z" />
      <circle
         cx="25.92"
         cy="25.92"
         id="connector12pin"
         r="1.98"
         sodipodi:cx="25.92"
         sodipodi:cy="25.92"
         sodipodi:rx="1.98"
         sodipodi:ry="1.98"
         style="fill:none;stroke:#ffbf00;stroke-width:1.44000006"
         d="m 27.9,25.92 c 0,1.093524 -0.886476,1.98 -1.98,1.98 -1.093524,0 -1.98,-0.886476 -1.98,-1.98 0,-1.093524 0.886476,-1.98 1.98,-1.98 1.093524,0 1.98,0.886476 1.98,1.98 z" />
      <circle
         cx="4.3200002"
         cy="33.119999"
         id="connector4pin"
         r="1.98"
         sodipodi:cx="4.3200002"
         sodipodi:cy="33.119999"
         sodipodi:rx="1.98"
         sodipodi:ry="1.98"
         style="fill:none;stroke:#ffbf00;stroke-width:1.44000006"
         d="m 6.3000002,33.119999 c 0,1.093524 -0.8864762,1.98 -1.98,1.98 -1.0935238,0 -1.98,-0.886476 -1.98,-1.98 0,-1.093524 0.8864762,-1.98 1.98,-1.98 1.0935238,0 1.98,0.886476 1.98,1.98 z" />
      <circle
         cx="25.92"
         cy="33.119999"
         id="connector11pin"
         r="1.98"
         sodipodi:cx="25.92"
         sodipodi:cy="33.119999"
         sodipodi:rx="1.98"
         sodipodi:ry="1.98"
         style="fill:none;stroke:#ffbf00;stroke-width:1.44000006"
         d="m 27.9,33.119999 c 0,1.093524 -0.886476,1.98 -1.98,1.98 -1.093524,0 -1.98,-0.886476 -1.98,-1.98 0,-1.093524 0.886476,-1.98 1.98,-1.98 1.093524,0 1.98,0.886476 1.98,1.98 z" />
      <circle
         cx="4.3200002"
         cy="40.32"
         id="connector5pin"
         r="1.98"
         sodipodi:cx="4.3200002"
         sodipodi:cy="40.32"
         sodipodi:rx="1.98"
         sodipodi:ry="1.98"
         style="fill:none;stroke:#ffbf00;stroke-width:1.44000006"
         d="m 6.3000002,40.32 c 0,1.093524 -0.8864762,1.98 -1.98,1.98 -1.0935238,0 -1.98,-0.886476 -1.98,-1.98 0,-1.093524 0.8864762,-1.98 1.98,-1.98 1.0935238,0 1.98,0.886476 1.98,1.98 z" />
      <circle
         cx="25.92"
         cy="40.32"
         id="connector10pin"
         r="1.98"
         sodipodi:cx="25.92"
         sodipodi:cy="40.32"
         sodipodi:rx="1.98"
         sodipodi:ry="1.98"
         style="fill:none;stroke:#ffbf00;stroke-width:1.44000006"
         d="m 27.9,40.32 c 0,1.093524 -0.886476,1.98 -1.98,1.98 -1.093524,0 -1.98,-0.886476 -1.98,-1.98 0,-1.093524 0.886476,-1.98 1.98,-1.98 1.093524,0 1.98,0.886476 1.98,1.98 z" />
      <circle
         cx="4.3200002"
         cy="47.52"
         id="connector6pin"
         r="1.98"
         sodipodi:cx="4.3200002"
         sodipodi:cy="47.52"
         sodipodi:rx="1.98"
         sodipodi:ry="1.98"
         style="fill:none;stroke:#ffbf00;stroke-width:1.44000006"
         d="m 6.3000002,47.52 c 0,1.093524 -0.8864762,1.98 -1.98,1.98 -1.0935238,0 -1.98,-0.886476 -1.98,-1.98 0,-1.093523 0.8864762,-1.98 1.98,-1.98 1.0935238,0 1.98,0.886477 1.98,1.98 z" />
      <circle
         cx="25.92"
         cy="47.52"
         id="connector9pin"
         r="1.98"
         sodipodi:cx="25.92"
         sodipodi:cy="47.52"
         sodipodi:rx="1.98"
         sodipodi:ry="1.98"
         style="fill:none;stroke:#ffbf00;stroke-width:1.44000006"
         d="m 27.9,47.52 c 0,1.093524 -0.886476,1.98 -1.98,1.98 -1.093524,0 -1.98,-0.886476 -1.98,-1.98 0,-1.093523 0.886476,-1.98 1.98,-1.98 1.093524,0 1.98,0.886477 1.98,1.98 z" />
      <circle
         cx="4.3200002"
         cy="54.720001"
         id="connector7pin"
         r="1.98"
         sodipodi:cx="4.3200002"
         sodipodi:cy="54.720001"
         sodipodi:rx="1.98"
         sodipodi:ry="1.98"
         style="fill:none;stroke:#ffbf00;stroke-width:1.44000006"
         d="m 6.3000002,54.720001 c 0,1.093524 -0.8864762,1.98 -1.98,1.98 -1.0935238,0 -1.98,-0.886476 -1.98,-1.98 0,-1.093524 0.8864762,-1.98 1.98,-1.98 1.0935238,0 1.98,0.886476 1.98,1.98 z" />
      <circle
         cx="25.92"
         cy="54.720001"
         id="connector8pin"
         r="1.98"
         sodipodi:cx="25.92"
         sodipodi:cy="54.720001"
         sodipodi:rx="1.98"
         sodipodi:ry="1.98"
         style="fill:none;stroke:#ffbf00;stroke-width:1.44000006"
         d="m 27.9,54.720001 c 0,1.093524 -0.886476,1.98 -1.98,1.98 -1.093524,0 -1.98,-0.886476 -1.98,-1.98 0,-1.093524 0.886476,-1.98 1.98,-1.98 1.093524,0 1.98,0.886476 1.98,1.98 z" />
    </g>
  </g>
  <rect
     style="fill:none;stroke:#ffbf00;stroke-width:1.44000006"
     id="rect3228"
     height="3.96"
     y="1.979919"
     x="1.9799999"
     width="3.96" />
  <circle
     style="fill:none;stroke:#ffbf00;stroke-width:1.44000006"
     sodipodi:ry="1.98"
     sodipodi:rx="1.98"
     sodipodi:cy="4.3200002"
     sodipodi:cx="4.3200002"
     r="1.98"
     id="circle3230"
     cy="4.3200002"
     cx="4.3200002"
     transform="translate(-0.36000001,-0.36008098)" />
  <circle
     style="fill:none;stroke:#ffbf00;stroke-width:1.44000006"
     sodipodi:ry="1.98"
     sodipodi:rx="1.98"
     sodipodi:cy="4.3200002"
     sodipodi:cx="25.92"
     r="1.98"
     id="circle3232"
     cy="4.3200002"
     cx="25.92"
     transform="translate(-0.36000001,-0.36008098)" />
  <circle
     style="fill:none;stroke:#ffbf00;stroke-width:1.44000006"
     sodipodi:ry="1.98"
     sodipodi:rx="1.98"
     sodipodi:cy="11.52"
     sodipodi:cx="4.3200002"
     r="1.98"
     id="circle3234"
     cy="11.52"
     cx="4.3200002"
     transform="translate(-0.36000001,-0.36008098)" />
  <circle
     style="fill:none;stroke:#ffbf00;stroke-width:1.44000006"
     sodipodi:ry="1.98"
     sodipodi:rx="1.98"
     sodipodi:cy="11.52"
     sodipodi:cx="25.92"
     r="1.98"
     id="circle3236"
     cy="11.52"
     cx="25.92"
     transform="translate(-0.36000001,-0.36008098)" />
  <circle
     style="fill:none;stroke:#ffbf00;stroke-width:1.44000006"
     sodipodi:ry="1.98"
     sodipodi:rx="1.98"
     sodipodi:cy="18.719999"
     sodipodi:cx="4.3200002"
     r="1.98"
     id="circle3238"
     cy="18.719999"
     cx="4.3200002"
     transform="translate(-0.36000001,-0.36008098)" />
  <circle
     style="fill:none;stroke:#ffbf00;stroke-width:1.44000006"
     sodipodi:ry="1.98"
     sodipodi:rx="1.98"
     sodipodi:cy="18.719999"
     sodipodi:cx="25.92"
     r="1.98"
     id="circle3240"
     cy="18.719999"
     cx="25.92"
     transform="translate(-0.36000001,-0.36008098)" />
  <circle
     style="fill:none;stroke:#ffbf00;stroke-width:1.44000006"
     sodipodi:ry="1.98"
     sodipodi:rx="1.98"
     sodipodi:cy="25.92"
     sodipodi:cx="4.3200002"
     r="1.98"
     id="circle3242"
     cy="25.92"
     cx="4.3200002"
     transform="translate(-0.36000001,-0.36008098)" />
  <circle
     style="fill:none;stroke:#ffbf00;stroke-width:1.44000006"
     sodipodi:ry="1.98"
     sodipodi:rx="1.98"
     sodipodi:cy="25.92"
     sodipodi:cx="25.92"
     r="1.98"
     id="circle3244"
     cy="25.92"
     cx="25.92"
     transform="translate(-0.36000001,-0.36008098)" />
  <circle
     style="fill:none;stroke:#ffbf00;stroke-width:1.44000006"
     sodipodi:ry="1.98"
     sodipodi:rx="1.98"
     sodipodi:cy="33.119999"
     sodipodi:cx="4.3200002"
     r="1.98"
     id="circle3246"
     cy="33.119999"
     cx="4.3200002"
     transform="translate(-0.36000001,-0.36008098)" />
  <circle
     style="fill:none;stroke:#ffbf00;stroke-width:1.44000006"
     sodipodi:ry="1.98"
     sodipodi:rx="1.98"
     sodipodi:cy="33.119999"
     sodipodi:cx="25.92"
     r="1.98"
     id="circle3248"
     cy="33.119999"
     cx="25.92"
     transform="translate(-0.36000001,-0.36008098)" />
  <circle
     style="fill:none;stroke:#ffbf00;stroke-width:1.44000006"
     sodipodi:ry="1.98"
     sodipodi:rx="1.98"
     sodipodi:cy="40.32"
     sodipodi:cx="4.3200002"
     r="1.98"
     id="circle3250"
     cy="40.32"
     cx="4.3200002"
     transform="translate(-0.36000001,-0.36008098)" />
  <circle
     style="fill:none;stroke:#ffbf00;stroke-width:1.44000006"
     sodipodi:ry="1.98"
     sodipodi:rx="1.98"
     sodipodi:cy="40.32"
     sodipodi:cx="25.92"
     r="1.98"
     id="circle3252"
     cy="40.32"
     cx="25.92"
     transform="translate(-0.36000001,-0.36008098)" />
  <circle
     style="fill:none;stroke:#ffbf00;stroke-width:1.44000006"
     sodipodi:ry="1.98"
     sodipodi:rx="1.98"
     sodipodi:cy="47.52"
     sodipodi:cx="4.3200002"
     r="1.98"
     id="circle3254"
     cy="47.52"
     cx="4.3200002"
     transform="translate(-0.36000001,-0.36008098)" />
  <circle
     style="fill:none;stroke:#ffbf00;stroke-width:1.44000006"
     sodipodi:ry="1.98"
     sodipodi:rx="1.98"
     sodipodi:cy="47.52"
     sodipodi:cx="25.92"
     r="1.98"
     id="circle3256"
     cy="47.52"
     cx="25.92"
     transform="translate(-0.36000001,-0.36008098)" />
  <circle
     style="fill:none;stroke:#ffbf00;stroke-width:1.44000006"
     sodipodi:ry="1.98"
     sodipodi:rx="1.98"
     sodipodi:cy="54.720001"
     sodipodi:cx="4.3200002"
     r="1.98"
     id="circle3258"
     cy="54.720001"
     cx="4.3200002"
     transform="translate(-0.36000001,-0.36008098)" />
  <circle
     style="fill:none;stroke:#ffbf00;stroke-width:1.44000006"
     sodipodi:ry="1.98"
     sodipodi:rx="1.98"
     sodipodi:cy="54.720001"
     sodipodi:cx="25.92"
     r="1.98"
     id="circle3260"
     cy="54.720001"
     cx="25.92"
     transform="translate(-0.36000001,-0.36008098)" />
  <g
     partID="62322"
     id="g3262"
     transform="translate(-0.36000001,-0.36008098)">
    <g
       id="silkscreen">
      <line
         y1="0.72000003"
         x1="0.72000003"
         y2="58.32"
         x2="0.72000003"
         id="line3265"
         style="stroke:#ffffff;stroke-width:0.72000003" />
      <line
         y1="58.32"
         x1="0.72000003"
         y2="58.32"
         x2="29.52"
         id="line3267"
         style="stroke:#ffffff;stroke-width:0.72000003" />
      <line
         y1="58.32"
         x1="29.52"
         y2="0.72000003"
         x2="29.52"
         id="line3269"
         style="stroke:#ffffff;stroke-width:0.72000003" />
      <line
         y1="0.72000003"
         x1="0.72000003"
         y2="0.72000003"
         x2="11.52"
         id="line3271"
         style="stroke:#ffffff;stroke-width:0.72000003" />
      <line
         y1="0.72000003"
         x1="18.719999"
         y2="0.72000003"
         x2="29.52"
         id="line3273"
         style="stroke:#ffffff;stroke-width:0.72000003" />
    </g>
  </g>
  <circle
     transform="translate(-0.36818609,28.415994)"
     style="fill:none;stroke:#ffbf00;stroke-width:1.44000006"
     sodipodi:ry="1.98"
     sodipodi:rx="1.98"
     sodipodi:cy="33.119999"
     sodipodi:cx="4.3200002"
     r="1.98"
     id="circle3246-5"
     cy="33.119999"
     cx="4.3200002" />
  <circle
     transform="translate(-0.36818609,28.415994)"
     style="fill:none;stroke:#ffbf00;stroke-width:1.44000006"
     sodipodi:ry="1.98"
     sodipodi:rx="1.98"
     sodipodi:cy="33.119999"
     sodipodi:cx="25.92"
     r="1.98"
     id="circle3248-3"
     cy="33.119999"
     cx="25.92" />
  <circle
     transform="translate(-0.36818609,28.415994)"
     style="fill:none;stroke:#ffbf00;stroke-width:1.44000006"
     sodipodi:ry="1.98"
     sodipodi:rx="1.98"
     sodipodi:cy="40.32"
     sodipodi:cx="4.3200002"
     r="1.98"
     id="circle3250-8"
     cy="40.32"
     cx="4.3200002" />
  <circle
     transform="translate(-0.36818609,28.415994)"
     style="fill:none;stroke:#ffbf00;stroke-width:1.44000006"
     sodipodi:ry="1.98"
     sodipodi:rx="1.98"
     sodipodi:cy="40.32"
     sodipodi:cx="25.92"
     r="1.98"
     id="circle3252-7"
     cy="40.32"
     cx="25.92" />
  <circle
     transform="translate(-0.36818609,28.415994)"
     style="fill:none;stroke:#ffbf00;stroke-width:1.44000006"
     sodipodi:ry="1.98"
     sodipodi:rx="1.98"
     sodipodi:cy="47.52"
     sodipodi:cx="4.3200002"
     r="1.98"
     id="circle3254-4"
     cy="47.52"
     cx="4.3200002" />
  <circle
     transform="translate(-0.36818609,28.415994)"
     style="fill:none;stroke:#ffbf00;stroke-width:1.44000006"
     sodipodi:ry="1.98"
     sodipodi:rx="1.98"
     sodipodi:cy="47.52"
     sodipodi:cx="25.92"
     r="1.98"
     id="circle3256-7"
     cy="47.52"
     cx="25.92" />
  <circle
     transform="translate(-0.36818609,28.415994)"
     style="fill:none;stroke:#ffbf00;stroke-width:1.44000006"
     sodipodi:ry="1.98"
     sodipodi:rx="1.98"
     sodipodi:cy="54.720001"
     sodipodi:cx="4.3200002"
     r="1.98"
     id="circle3258-1"
     cy="54.720001"
     cx="4.3200002" />
  <circle
     transform="translate(-0.36818609,28.415994)"
     style="fill:none;stroke:#ffbf00;stroke-width:1.44000006"
     sodipodi:ry="1.98"
     sodipodi:rx="1.98"
     sodipodi:cy="54.720001"
     sodipodi:cx="25.92"
     r="1.98"
     id="circle3260-4"
     cy="54.720001"
     cx="25.92" />
</svg>
