<?xml version="1.0" encoding="UTF-8" standalone="no"?>
<svg
   xmlns:dc="http://purl.org/dc/elements/1.1/"
   xmlns:cc="http://creativecommons.org/ns#"
   xmlns:rdf="http://www.w3.org/1999/02/22-rdf-syntax-ns#"
   xmlns:svg="http://www.w3.org/2000/svg"
   xmlns="http://www.w3.org/2000/svg"
   xmlns:sodipodi="http://sodipodi.sourceforge.net/DTD/sodipodi-0.dtd"
   xmlns:inkscape="http://www.inkscape.org/namespaces/inkscape"
   width="107.74367"
   x="0in"
   version="1.2"
   y="0in"
   height="29.708635"
   viewBox="0 0 1197.1519 330.09594"
   id="svg3318"
   inkscape:version="0.48.4 r"
   sodipodi:docname="TCA9548A_breadboard.svg">
  <metadata
     id="metadata3401">
    <rdf:RDF>
      <cc:Work
         rdf:about="">
        <dc:format>image/svg+xml</dc:format>
        <dc:type
           rdf:resource="http://purl.org/dc/dcmitype/StillImage" />
      </cc:Work>
    </rdf:RDF>
  </metadata>
  <defs
     id="defs3399" />
  <sodipodi:namedview
     pagecolor="#ffffff"
     bordercolor="#666666"
     borderopacity="1"
     objecttolerance="10"
     gridtolerance="10"
     guidetolerance="10"
     inkscape:pageopacity="0"
     inkscape:pageshadow="2"
     inkscape:window-width="2048"
     inkscape:window-height="1100"
     id="namedview3397"
     showgrid="false"
     fit-margin-top="0"
     fit-margin-left="0"
     fit-margin-right="0"
     fit-margin-bottom="0"
     inkscape:zoom="9.2562242"
     inkscape:cx="76.847461"
     inkscape:cy="27.453645"
     inkscape:window-x="-8"
     inkscape:window-y="-8"
     inkscape:window-maximized="1"
     inkscape:current-layer="svg3318" />
  <rect
     style="fill:#303030;stroke-width:0"
     id="middle"
     height="268.79962"
     y="29.999996"
     x="0"
     width="1197.1519" />
  <rect
     style="fill:#3d3d3d;stroke-width:0"
     id="top"
     height="24.599998"
     y="29.999996"
     x="0"
     width="1197.0291" />
  <rect
     style="fill:#000000;stroke-width:0"
     id="bottom"
     height="24.175619"
     y="275.39999"
     x="0"
     width="1197.0292" />
  <polygon
     style="fill:#141414;stroke-width:0"
     transform="translate(397.06451,-1.0610122)"
     id="right"
     points="792.5,54.6 792.5,275.4 800,300 800,30 " />
  <polygon
     style="fill:#1f1f1f;stroke-width:0"
     id="left"
     points="7.5,54.6 7.5,275.4 0,300 0,30 "
     transform="translate(0,-4.2385525e-6)" />
  <circle
     style="fill:#212121;stroke-width:0"
     transform="translate(-22.222222,-4.2385525e-6)"
     sodipodi:ry="20.6"
     sodipodi:rx="20.6"
     sodipodi:cy="234.7"
     sodipodi:cx="65"
     id="circle3330"
     r="20.6"
     cy="234.7"
     cx="65" />
  <text
     style="font-size:80px;text-anchor:start;fill:#e6e6e6;stroke:none;font-family:OCRA"
     font-size="80"
     id="label"
     y="165"
     x="65">TCA9548A</text>
  <rect
     style="fill:#8c8c8c;stroke-width:0"
     id="connector0pin"
     height="43.400002"
     y="286.60001"
     x="35"
     width="30" />
  <rect
     style="fill:#8c8c8c;stroke-width:0"
     id="connector0terminal"
     height="30"
     y="300"
     x="35"
     width="30" />
  <polygon
     style="fill:#8c8c8c;stroke-width:0"
     id="polygon3335"
     points="35,286.6 35,306.6 65,306.6 85,297.4 85,286.6 "
     transform="translate(0,-4.2385525e-6)" />
  <rect
     style="fill:#8c8c8c;stroke-width:0"
     id="connector15pin"
     height="43.400002"
     y="-4.2385527e-006"
     x="35"
     width="30" />
  <rect
     style="fill:#8c8c8c;stroke-width:0"
     id="connector15terminal"
     height="30"
     y="-4.2385527e-006"
     x="35"
     width="30" />
  <polygon
     style="fill:#8c8c8c;stroke-width:0"
     id="polygon3339"
     points="85,43.4 85,32.6 65,23.4 35,23.4 35,43.4 "
     transform="translate(0,-4.2385525e-6)" />
  <rect
     style="fill:#8c8c8c;stroke-width:0"
     id="connector7pin"
     height="43.400002"
     y="286.60001"
     x="735"
     width="30" />
  <rect
     style="fill:#8c8c8c;stroke-width:0"
     id="connector8pin"
     height="43.400002"
     y="-4.2385527e-006"
     x="735"
     width="30" />
  <rect
     style="fill:#8c8c8c;stroke-width:0"
     id="connector8terminal"
     height="30"
     y="-4.2385527e-006"
     x="735"
     width="30" />
  <rect
     style="fill:#8c8c8c;stroke-width:0"
     id="connector1pin"
     height="43.400002"
     y="286.60001"
     x="135"
     width="30" />
  <rect
     style="fill:#8c8c8c;stroke-width:0"
     id="connector1terminal"
     height="30"
     y="300"
     x="135"
     width="30" />
  <polygon
     style="fill:#8c8c8c;stroke-width:0"
     id="polygon3351"
     points="185,286.6 115,286.6 115,297.4 135,306.6 165,306.6 185,297.4 "
     transform="translate(0,-4.2385525e-6)" />
  <rect
     style="fill:#8c8c8c;stroke-width:0"
     id="connector14pin"
     height="43.400002"
     y="-4.2385527e-006"
     x="135"
     width="30" />
  <rect
     style="fill:#8c8c8c;stroke-width:0"
     id="connector14terminal"
     height="30"
     y="-4.2385527e-006"
     x="135"
     width="30" />
  <polygon
     style="fill:#8c8c8c;stroke-width:0"
     id="polygon3355"
     points="115,43.4 185,43.4 185,32.6 165,23.4 135,23.4 115,32.6 "
     transform="translate(0,-4.2385525e-6)" />
  <rect
     style="fill:#8c8c8c;stroke-width:0"
     id="connector2pin"
     height="43.400002"
     y="286.60001"
     x="235"
     width="30" />
  <rect
     style="fill:#8c8c8c;stroke-width:0"
     id="connector2terminal"
     height="30"
     y="300"
     x="235"
     width="30" />
  <polygon
     style="fill:#8c8c8c;stroke-width:0"
     id="polygon3359"
     points="285,286.6 215,286.6 215,297.4 235,306.6 265,306.6 285,297.4 "
     transform="translate(0,-4.2385525e-6)" />
  <rect
     style="fill:#8c8c8c;stroke-width:0"
     id="connector13pin"
     height="43.400002"
     y="-4.2385527e-006"
     x="235"
     width="30" />
  <rect
     style="fill:#8c8c8c;stroke-width:0"
     id="connector13terminal"
     height="30"
     y="-4.2385527e-006"
     x="235"
     width="30" />
  <polygon
     style="fill:#8c8c8c;stroke-width:0"
     id="polygon3363"
     points="215,43.4 285,43.4 285,32.6 265,23.4 235,23.4 215,32.6 "
     transform="translate(0,-4.2385525e-6)" />
  <rect
     style="fill:#8c8c8c;stroke-width:0"
     id="connector3pin"
     height="43.400002"
     y="286.60001"
     x="335"
     width="30" />
  <rect
     style="fill:#8c8c8c;stroke-width:0"
     id="connector3terminal"
     height="30"
     y="300"
     x="335"
     width="30" />
  <polygon
     style="fill:#8c8c8c;stroke-width:0"
     id="polygon3367"
     points="385,286.6 315,286.6 315,297.4 335,306.6 365,306.6 385,297.4 "
     transform="translate(0,-4.2385525e-6)" />
  <rect
     style="fill:#8c8c8c;stroke-width:0"
     id="connector12pin"
     height="43.400002"
     y="-4.2385527e-006"
     x="335"
     width="30" />
  <rect
     style="fill:#8c8c8c;stroke-width:0"
     id="connector12terminal"
     height="30"
     y="-4.2385527e-006"
     x="335"
     width="30" />
  <polygon
     style="fill:#8c8c8c;stroke-width:0"
     id="polygon3371"
     points="315,43.4 385,43.4 385,32.6 365,23.4 335,23.4 315,32.6 "
     transform="translate(0,-4.2385525e-6)" />
  <rect
     style="fill:#8c8c8c;stroke-width:0"
     id="connector4pin"
     height="43.400002"
     y="286.60001"
     x="435"
     width="30" />
  <rect
     style="fill:#8c8c8c;stroke-width:0"
     id="connector4terminal"
     height="30"
     y="300"
     x="435"
     width="30" />
  <polygon
     style="fill:#8c8c8c;stroke-width:0"
     id="polygon3375"
     points="485,286.6 415,286.6 415,297.4 435,306.6 465,306.6 485,297.4 "
     transform="translate(0,-4.2385525e-6)" />
  <rect
     style="fill:#8c8c8c;stroke-width:0"
     id="connector11pin"
     height="43.400002"
     y="-4.2385527e-006"
     x="435"
     width="30" />
  <rect
     style="fill:#8c8c8c;stroke-width:0"
     id="connector11terminal"
     height="30"
     y="-4.2385527e-006"
     x="435"
     width="30" />
  <polygon
     style="fill:#8c8c8c;stroke-width:0"
     id="polygon3379"
     points="415,43.4 485,43.4 485,32.6 465,23.4 435,23.4 415,32.6 "
     transform="translate(0,-4.2385525e-6)" />
  <rect
     style="fill:#8c8c8c;stroke-width:0"
     id="connector5pin"
     height="43.400002"
     y="286.60001"
     x="535"
     width="30" />
  <rect
     style="fill:#8c8c8c;stroke-width:0"
     id="connector5terminal"
     height="30"
     y="300"
     x="535"
     width="30" />
  <polygon
     style="fill:#8c8c8c;stroke-width:0"
     id="polygon3383"
     points="585,286.6 515,286.6 515,297.4 535,306.6 565,306.6 585,297.4 "
     transform="translate(0,-4.2385525e-6)" />
  <rect
     style="fill:#8c8c8c;stroke-width:0"
     id="connector10pin"
     height="43.400002"
     y="-4.2385527e-006"
     x="535"
     width="30" />
  <rect
     style="fill:#8c8c8c;stroke-width:0"
     id="connector10terminal"
     height="30"
     y="-4.2385527e-006"
     x="535"
     width="30" />
  <polygon
     style="fill:#8c8c8c;stroke-width:0"
     id="polygon3387"
     points="515,43.4 585,43.4 585,32.6 565,23.4 535,23.4 515,32.6 "
     transform="translate(0,-4.2385525e-6)" />
  <rect
     style="fill:#8c8c8c;stroke-width:0"
     id="connector6pin"
     height="43.400002"
     y="286.60001"
     x="635"
     width="30" />
  <rect
     style="fill:#8c8c8c;stroke-width:0"
     id="connector6terminal"
     height="30"
     y="300"
     x="635"
     width="30" />
  <polygon
     style="fill:#8c8c8c;stroke-width:0"
     id="polygon3391"
     points="685,286.6 615,286.6 615,297.4 635,306.6 665,306.6 685,297.4 "
     transform="translate(0,-4.2385525e-6)" />
  <rect
     style="fill:#8c8c8c;stroke-width:0"
     id="connector9pin"
     height="43.400002"
     y="-4.2385527e-006"
     x="635"
     width="30" />
  <rect
     style="fill:#8c8c8c;stroke-width:0"
     id="connector9terminal"
     height="30"
     y="-4.2385527e-006"
     x="635"
     width="30" />
  <polygon
     style="fill:#8c8c8c;stroke-width:0"
     id="polygon3395"
     points="615,43.4 685,43.4 685,32.6 665,23.4 635,23.4 615,32.6 "
     transform="translate(0,-4.2385525e-6)" />
  <rect
     style="fill:#8c8c8c;stroke-width:0"
     id="connector7pin-0"
     height="43.400002"
     y="286.69595"
     x="1135.1115"
     width="30" />
  <rect
     style="fill:#8c8c8c;stroke-width:0"
     id="connector7terminal-6"
     height="30"
     y="300.09595"
     x="1135.1115"
     width="30" />
  <polygon
     transform="translate(400.11144,0.09594422)"
     style="fill:#8c8c8c;stroke-width:0"
     id="polygon3343-2"
     points="765,286.6 715,286.6 715,297.4 735,306.6 765,306.6 " />
  <rect
     style="fill:#8c8c8c;stroke-width:0"
     id="connector8pin-3"
     height="43.400002"
     y="0.095941968"
     x="1135.1115"
     width="30" />
  <rect
     style="fill:#8c8c8c;stroke-width:0"
     id="connector8terminal-4"
     height="30"
     y="0.095941968"
     x="1135.1115"
     width="30" />
  <polygon
     transform="translate(400.11144,0.09594422)"
     style="fill:#8c8c8c;stroke-width:0"
     id="polygon3347-9"
     points="715,43.4 765,43.4 765,23.4 735,23.4 715,32.6 " />
  <rect
     style="fill:#8c8c8c;stroke-width:0"
     id="connector12pin-8"
     height="43.400002"
     y="0.095941968"
     x="735.11145"
     width="30" />
  <rect
     style="fill:#8c8c8c;stroke-width:0"
     id="connector12terminal-4"
     height="30"
     y="0.095941968"
     x="735.11145"
     width="30" />
  <rect
     style="fill:#8c8c8c;stroke-width:0"
     id="connector4pin-8"
     height="43.400002"
     y="286.69595"
     x="835.11145"
     width="30" />
  <rect
     style="fill:#8c8c8c;stroke-width:0"
     id="connector4terminal-4"
     height="30"
     y="300.09595"
     x="835.11145"
     width="30" />
  <polygon
     transform="translate(400.11144,0.09594422)"
     style="fill:#8c8c8c;stroke-width:0"
     id="polygon3375-1"
     points="435,306.6 465,306.6 485,297.4 485,286.6 415,286.6 415,297.4 " />
  <rect
     style="fill:#8c8c8c;stroke-width:0"
     id="connector11pin-8"
     height="43.400002"
     y="0.095941968"
     x="835.11145"
     width="30" />
  <rect
     style="fill:#8c8c8c;stroke-width:0"
     id="connector11terminal-1"
     height="30"
     y="0.095941968"
     x="835.11145"
     width="30" />
  <polygon
     transform="translate(400.11144,0.09594422)"
     style="fill:#8c8c8c;stroke-width:0"
     id="polygon3379-7"
     points="465,23.4 435,23.4 415,32.6 415,43.4 485,43.4 485,32.6 " />
  <rect
     style="fill:#8c8c8c;stroke-width:0"
     id="connector5pin-3"
     height="43.400002"
     y="286.69595"
     x="935.11145"
     width="30" />
  <rect
     style="fill:#8c8c8c;stroke-width:0"
     id="connector5terminal-2"
     height="30"
     y="300.09595"
     x="935.11145"
     width="30" />
  <polygon
     transform="translate(400.11144,0.09594422)"
     style="fill:#8c8c8c;stroke-width:0"
     id="polygon3383-0"
     points="535,306.6 565,306.6 585,297.4 585,286.6 515,286.6 515,297.4 " />
  <rect
     style="fill:#8c8c8c;stroke-width:0"
     id="connector10pin-4"
     height="43.400002"
     y="0.095941968"
     x="935.11145"
     width="30" />
  <rect
     style="fill:#8c8c8c;stroke-width:0"
     id="connector10terminal-7"
     height="30"
     y="0.095941968"
     x="935.11145"
     width="30" />
  <polygon
     transform="translate(400.11144,0.09594422)"
     style="fill:#8c8c8c;stroke-width:0"
     id="polygon3387-8"
     points="565,23.4 535,23.4 515,32.6 515,43.4 585,43.4 585,32.6 " />
  <rect
     style="fill:#8c8c8c;stroke-width:0"
     id="connector6pin-8"
     height="43.400002"
     y="286.69595"
     x="1035.1115"
     width="30" />
  <rect
     style="fill:#8c8c8c;stroke-width:0"
     id="connector6terminal-0"
     height="30"
     y="300.09595"
     x="1035.1115"
     width="30" />
  <polygon
     transform="translate(400.11144,0.09594422)"
     style="fill:#8c8c8c;stroke-width:0"
     id="polygon3391-6"
     points="635,306.6 665,306.6 685,297.4 685,286.6 615,286.6 615,297.4 " />
  <rect
     style="fill:#8c8c8c;stroke-width:0"
     id="connector9pin-5"
     height="43.400002"
     y="0.095941968"
     x="1035.1115"
     width="30" />
  <rect
     style="fill:#8c8c8c;stroke-width:0"
     id="connector9terminal-3"
     height="30"
     y="0.095941968"
     x="1035.1115"
     width="30" />
  <polygon
     transform="translate(400.11144,0.09594422)"
     style="fill:#8c8c8c;stroke-width:0"
     id="polygon3395-0"
     points="665,23.4 635,23.4 615,32.6 615,43.4 685,43.4 685,32.6 " />
  <polygon
     transform="translate(99.795774,-0.21101697)"
     style="fill:#8c8c8c;stroke-width:0"
     id="polygon3391-2"
     points="615,286.6 615,297.4 635,306.6 665,306.6 685,297.4 685,286.6 " />
  <polygon
     transform="translate(99.945824,0.1028115)"
     style="fill:#8c8c8c;stroke-width:0"
     id="polygon3395-3"
     points="615,43.4 685,43.4 685,32.6 665,23.4 635,23.4 615,32.6 " />
</svg>
